<svg width="2813" height="610" viewBox="0 0 2813 610" fill="none" xmlns="http://www.w3.org/2000/svg">
<path d="M694 489C667.333 489 642.5 484.667 619.5 476C596.833 467 577 454.5 560 438.5C543.333 422.167 530.333 403 521 381C511.667 359 507 335 507 309C507 283 511.667 259 521 237C530.333 215 543.5 196 560.5 180C577.5 163.667 597.333 151.167 620 142.5C642.667 133.5 667.5 129 694.5 129C723.167 129 749.333 134 773 144C796.667 153.667 816.667 168.167 833 187.5L791 227C778.333 213.333 764.167 203.167 748.5 196.5C732.833 189.5 715.833 186 697.5 186C679.167 186 662.333 189 647 195C632 201 618.833 209.5 607.5 220.5C596.5 231.5 587.833 244.5 581.5 259.5C575.5 274.5 572.5 291 572.5 309C572.5 327 575.5 343.5 581.5 358.5C587.833 373.5 596.5 386.5 607.5 397.5C618.833 408.5 632 417 647 423C662.333 429 679.167 432 697.5 432C715.833 432 732.833 428.667 748.5 422C764.167 415 778.333 404.5 791 390.5L833 430.5C816.667 449.5 796.667 464 773 474C749.333 484 723 489 694 489ZM1051.34 484V430L1047.84 418.5V324C1047.84 305.667 1042.34 291.5 1031.34 281.5C1020.34 271.167 1003.67 266 981.34 266C966.34 266 951.507 268.333 936.84 273C922.507 277.667 910.34 284.167 900.34 292.5L875.84 247C890.173 236 907.173 227.833 926.84 222.5C946.84 216.833 967.507 214 988.84 214C1027.51 214 1057.34 223.333 1078.34 242C1099.67 260.333 1110.34 288.833 1110.34 327.5V484H1051.34ZM967.34 487.5C947.34 487.5 929.84 484.167 914.84 477.5C899.84 470.5 888.173 461 879.84 449C871.84 436.667 867.84 422.833 867.84 407.5C867.84 392.5 871.34 379 878.34 367C885.673 355 897.507 345.5 913.84 338.5C930.173 331.5 951.84 328 978.84 328H1056.34V369.5H983.34C962.007 369.5 947.673 373 940.34 380C933.007 386.667 929.34 395 929.34 405C929.34 416.333 933.84 425.333 942.84 432C951.84 438.667 964.34 442 980.34 442C995.673 442 1009.34 438.5 1021.34 431.5C1033.67 424.5 1042.51 414.167 1047.84 400.5L1058.34 438C1052.34 453.667 1041.51 465.833 1025.84 474.5C1010.51 483.167 991.007 487.5 967.34 487.5ZM1190.55 484V217H1250.05V290.5L1243.05 269C1251.05 251 1263.55 237.333 1280.55 228C1297.88 218.667 1319.38 214 1345.05 214V273.5C1342.38 272.833 1339.88 272.5 1337.55 272.5C1335.22 272.167 1332.88 272 1330.55 272C1306.88 272 1288.05 279 1274.05 293C1260.05 306.667 1253.05 327.167 1253.05 354.5V484H1190.55ZM1508.63 487.5C1482.96 487.5 1459.8 481.833 1439.13 470.5C1418.8 458.833 1402.8 442.833 1391.13 422.5C1379.46 402.167 1373.63 378.167 1373.63 350.5C1373.63 322.833 1379.46 298.833 1391.13 278.5C1402.8 258.167 1418.8 242.333 1439.13 231C1459.8 219.667 1482.96 214 1508.63 214C1530.96 214 1550.96 219 1568.63 229C1586.3 238.667 1600.3 253.5 1610.63 273.5C1620.96 293.5 1626.13 319.167 1626.13 350.5C1626.13 381.5 1621.13 407.167 1611.13 427.5C1601.13 447.5 1587.3 462.5 1569.63 472.5C1551.96 482.5 1531.63 487.5 1508.63 487.5ZM1516.13 434C1531.13 434 1544.46 430.667 1556.13 424C1568.13 417.333 1577.63 407.667 1584.63 395C1591.96 382.333 1595.63 367.5 1595.63 350.5C1595.63 333.167 1591.96 318.333 1584.63 306C1577.63 293.333 1568.13 283.667 1556.13 277C1544.46 270.333 1531.13 267 1516.13 267C1501.13 267 1487.63 270.333 1475.63 277C1463.96 283.667 1454.46 293.333 1447.13 306C1440.13 318.333 1436.63 333.167 1436.63 350.5C1436.63 367.5 1440.13 382.333 1447.13 395C1454.46 407.667 1463.96 417.333 1475.63 424C1487.63 430.667 1501.13 434 1516.13 434ZM1597.13 484V421L1599.63 350L1594.63 279V113H1656.63V484H1597.13ZM1747.39 484V202C1747.39 174 1755.56 151.667 1771.89 135C1788.56 118 1812.22 109.5 1842.89 109.5C1853.89 109.5 1864.22 110.667 1873.89 113C1883.89 115.333 1892.22 119 1898.89 124L1881.89 171C1877.22 167.333 1871.89 164.667 1865.89 163C1859.89 161 1853.72 160 1847.39 160C1834.39 160 1824.56 163.667 1817.89 171C1811.22 178 1807.89 188.667 1807.89 203V233L1809.89 261V484H1747.39ZM1703.39 269V219H1881.39V269H1703.39ZM2039.55 487.5C2012.22 487.5 1987.89 481.667 1966.55 470C1945.22 458 1928.39 441.667 1916.05 421C1903.72 400.333 1897.55 376.833 1897.55 350.5C1897.55 323.833 1903.72 300.333 1916.05 280C1928.39 259.333 1945.22 243.167 1966.55 231.5C1987.89 219.833 2012.22 214 2039.55 214C2067.22 214 2091.72 219.833 2113.05 231.5C2134.72 243.167 2151.55 259.167 2163.55 279.5C2175.89 299.833 2182.05 323.5 2182.05 350.5C2182.05 376.833 2175.89 400.333 2163.55 421C2151.55 441.667 2134.72 458 2113.05 470C2091.72 481.667 2067.22 487.5 2039.55 487.5ZM2039.55 434C2054.89 434 2068.55 430.667 2080.55 424C2092.55 417.333 2101.89 407.667 2108.55 395C2115.55 382.333 2119.05 367.5 2119.05 350.5C2119.05 333.167 2115.55 318.333 2108.55 306C2101.89 293.333 2092.55 283.667 2080.55 277C2068.55 270.333 2055.05 267 2040.05 267C2024.72 267 2011.05 270.333 1999.05 277C1987.39 283.667 1978.05 293.333 1971.05 306C1964.05 318.333 1960.55 333.167 1960.55 350.5C1960.55 367.5 1964.05 382.333 1971.05 395C1978.05 407.667 1987.39 417.333 1999.05 424C2011.05 430.667 2024.55 434 2039.55 434ZM2241.82 484V113H2304.32V484H2241.82ZM2386.35 484V217H2448.85V484H2386.35ZM2417.85 173C2406.18 173 2396.52 169.333 2388.85 162C2381.52 154.667 2377.85 145.833 2377.85 135.5C2377.85 124.833 2381.52 116 2388.85 109C2396.52 101.667 2406.18 98 2417.85 98C2429.52 98 2439.02 101.5 2446.35 108.5C2454.02 115.167 2457.85 123.667 2457.85 134C2457.85 145 2454.18 154.333 2446.85 162C2439.52 169.333 2429.85 173 2417.85 173ZM2650.88 487.5C2623.55 487.5 2599.22 481.667 2577.88 470C2556.55 458 2539.72 441.667 2527.38 421C2515.05 400.333 2508.88 376.833 2508.88 350.5C2508.88 323.833 2515.05 300.333 2527.38 280C2539.72 259.333 2556.55 243.167 2577.88 231.5C2599.22 219.833 2623.55 214 2650.88 214C2678.55 214 2703.05 219.833 2724.38 231.5C2746.05 243.167 2762.88 259.167 2774.88 279.5C2787.22 299.833 2793.38 323.5 2793.38 350.5C2793.38 376.833 2787.22 400.333 2774.88 421C2762.88 441.667 2746.05 458 2724.38 470C2703.05 481.667 2678.55 487.5 2650.88 487.5ZM2650.88 434C2666.22 434 2679.88 430.667 2691.88 424C2703.88 417.333 2713.22 407.667 2719.88 395C2726.88 382.333 2730.38 367.5 2730.38 350.5C2730.38 333.167 2726.88 318.333 2719.88 306C2713.22 293.333 2703.88 283.667 2691.88 277C2679.88 270.333 2666.38 267 2651.38 267C2636.05 267 2622.38 270.333 2610.38 277C2598.72 283.667 2589.38 293.333 2582.38 306C2575.38 318.333 2571.88 333.167 2571.88 350.5C2571.88 367.5 2575.38 382.333 2582.38 395C2589.38 407.667 2598.72 417.333 2610.38 424C2622.38 430.667 2635.88 434 2650.88 434Z" fill="black"/>
<circle cx="220.5" cy="304.5" r="185.5" stroke="black" stroke-width="70"/>
<line x1="95.8579" y1="422.858" x2="278.858" y2="239.858" stroke="black" stroke-width="40"/>
<path d="M326 195L242.348 217.414L303.586 278.652L326 195ZM264.303 267.303L283.574 248.033L272.967 237.426L253.697 256.697L264.303 267.303Z" fill="black"/>
<circle cx="220.5" cy="304.5" r="34.5" fill="white" stroke="black" stroke-width="30"/>
</svg>
